{
  "accessors": [
    {
      "bufferView": 2,
      "componentType": 5126,
      "count": 1897,
      "max": [
        0.3514048159122467,
        0.6764667630195618,
        1.588394045829773
      ],
      "min": [
        -0.36262238025665283,
        -0.43701180815696716,
        -2.0101094245910645
      ],
      "type": "VEC3"
    },
    {
      "bufferView": 2,
      "byteOffset": 22764,
      "componentType": 5126,
      "count": 1897,
      "max": [
        1.0,
        1.0,
        1.0
      ],
      "min": [
        -1.0,
        -1.0,
        -1.0
      ],
      "type": "VEC3"
    },
    {
      "bufferView": 3,
      "componentType": 5126,
      "count": 1897,
      "max": [
        1.0,
        1.0,
        1.0,
        1.0
      ],
      "min": [
        -1.0,
        -1.0,
        -1.0,
        -1.0
      ],
      "type": "VEC4"
    },
    {
      "bufferView": 1,
      "componentType": 5126,
      "count": 1897,
      "max": [
        0.986057460308075,
        0.9863201379776001
      ],
      "min": [
        0.013679862022399902,
        0.013679921627044678
      ],
      "type": "VEC2"
    },
    {
      "bufferView": 1,
      "byteOffset": 15176,
      "componentType": 5126,
      "count": 1897,
      "max": [
        0.986057460308075,
        0.9863201379776001
      ],
      "min": [
        0.013679862022399902,
        0.013679921627044678
      ],
      "type": "VEC2"
    },
    {
      "bufferView": 1,
      "byteOffset": 30352,
      "componentType": 5126,
      "count": 1897,
      "max": [
        0.986057460308075,
        0.9863201379776001
      ],
      "min": [
        0.013679862022399902,
        0.013679921627044678
      ],
      "type": "VEC2"
    },
    {
      "bufferView": 1,
      "byteOffset": 45528,
      "componentType": 5126,
      "count": 1897,
      "max": [
        0.986057460308075,
        0.9863201379776001
      ],
      "min": [
        0.013679862022399902,
        0.013679921627044678
      ],
      "type": "VEC2"
    },
    {
      "bufferView": 0,
      "componentType": 5125,
      "count": 6918,
      "type": "SCALAR"
    }
  ],
  "asset": {
    "extras": {
      "author": "A3st (https://sketchfab.com/mludima23)",
      "license": "CC-BY-4.0 (http://creativecommons.org/licenses/by/4.0/)",
      "source": "https://sketchfab.com/3d-models/rocket-laucnher-quake-758e14cadb664334af0ed88108723dbf",
      "title": "Rocket Laucnher Quake"
    },
    "generator": "Sketchfab-12.66.0",
    "version": "2.0"
  },
  "bufferViews": [
    {
      "buffer": 0,
      "byteLength": 27672,
      "name": "floatBufferViews",
      "target": 34963
    },
    {
      "buffer": 0,
      "byteLength": 60704,
      "byteOffset": 27672,
      "byteStride": 8,
      "name": "floatBufferViews",
      "target": 34962
    },
    {
      "buffer": 0,
      "byteLength": 45528,
      "byteOffset": 88376,
      "byteStride": 12,
      "name": "floatBufferViews",
      "target": 34962
    },
    {
      "buffer": 0,
      "byteLength": 30352,
      "byteOffset": 133904,
      "byteStride": 16,
      "name": "floatBufferViews",
      "target": 34962
    }
  ],
  "buffers": [
    {
      "byteLength": 164256,
      "uri": "scene.bin"
    }
  ],
  "images": [
    {
      "uri": "textures/Weapon_RL_baseColor.png"
    },
    {
      "uri": "textures/Weapon_RL_metallicRoughness.png"
    },
    {
      "uri": "textures/Weapon_RL_normal.png"
    }
  ],
  "materials": [
    {
      "doubleSided": true,
      "name": "Weapon_RL",
      "normalTexture": {
        "index": 2
      },
      "pbrMetallicRoughness": {
        "baseColorTexture": {
          "index": 0
        },
        "metallicRoughnessTexture": {
          "index": 1
        }
      }
    }
  ],
  "meshes": [
    {
      "name": "Object_0",
      "primitives": [
        {
          "attributes": {
            "NORMAL": 1,
            "POSITION": 0,
            "TANGENT": 2,
            "TEXCOORD_0": 3,
            "TEXCOORD_1": 4,
            "TEXCOORD_2": 5,
            "TEXCOORD_3": 6
          },
          "indices": 7,
          "material": 0,
          "mode": 4
        }
      ]
    }
  ],
  "nodes": [
    {
      "children": [
        1
      ],
      "matrix": [
        1.0,
        0.0,
        0.0,
        0.0,
        0.0,
        2.220446049250313e-16,
        -1.0,
        0.0,
        0.0,
        1.0,
        2.220446049250313e-16,
        0.0,
        0.0,
        0.0,
        0.0,
        1.0
      ],
      "name": "Sketchfab_model"
    },
    {
      "children": [
        2
      ],
      "name": "root"
    },
    {
      "children": [
        3
      ],
      "matrix": [
        1.0,
        0.0,
        0.0,
        0.0,
        0.0,
        2.220446049250313e-16,
        1.0,
        0.0,
        0.0,
        -1.0,
        2.220446049250313e-16,
        0.0,
        0.0,
        0.0,
        0.0,
        1.0
      ],
      "name": "GLTF_SceneRootNode"
    },
    {
      "children": [
        4
      ],
      "matrix": [
        1.0,
        0.0,
        0.0,
        0.0,
        0.0,
        1.0,
        0.0,
        0.0,
        0.0,
        0.0,
        1.0,
        0.0,
        0.005362778902053833,
        0.283266544342041,
        -0.12820950150489807,
        1.0
      ],
      "name": "Weapon_RL_0"
    },
    {
      "mesh": 0,
      "name": "Object_4"
    }
  ],
  "samplers": [
    {
      "magFilter": 9729,
      "minFilter": 9987,
      "wrapS": 10497,
      "wrapT": 10497
    }
  ],
  "scene": 0,
  "scenes": [
    {
      "name": "Sketchfab_Scene",
      "nodes": [
        0
      ]
    }
  ],
  "textures": [
    {
      "sampler": 0,
      "source": 0
    },
    {
      "sampler": 0,
      "source": 1
    },
    {
      "sampler": 0,
      "source": 2
    }
  ]
}
