{
  "accessors": [
    {
      "bufferView": 2,
      "componentType": 5126,
      "count": 1288,
      "max": [
        2.514810085296631,
        2.514810085296631,
        4.392449855804443
      ],
      "min": [
        -2.514810085296631,
        -2.514810085296631,
        -6.192039966583252
      ],
      "type": "VEC3"
    },
    {
      "bufferView": 2,
      "byteOffset": 15456,
      "componentType": 5126,
      "count": 1288,
      "max": [
        1.0,
        1.0,
        0.7840614318847656
      ],
      "min": [
        -1.0,
        -1.0,
        -1.0
      ],
      "type": "VEC3"
    },
    {
      "bufferView": 1,
      "componentType": 5126,
      "count": 1288,
      "max": [
        0.995930016040802,
        0.981410026550293
      ],
      "min": [
        0.008940000087022781,
        0.00013000000035390258
      ],
      "type": "VEC2"
    },
    {
      "bufferView": 0,
      "componentType": 5125,
      "count": 2058,
      "type": "SCALAR"
    }
  ],
  "asset": {
    "extras": {
      "author": "jpgrandi (https://sketchfab.com/jpgrandi)",
      "license": "CC-BY-4.0 (http://creativecommons.org/licenses/by/4.0/)",
      "source": "https://sketchfab.com/3d-models/simple-rocket-missile-be1d93da1bf74d568f01f626a652ed2b",
      "title": "Simple Rocket / Missile"
    },
    "generator": "Sketchfab-12.68.0",
    "version": "2.0"
  },
  "bufferViews": [
    {
      "buffer": 0,
      "byteLength": 8232,
      "name": "floatBufferViews",
      "target": 34963
    },
    {
      "buffer": 0,
      "byteLength": 10304,
      "byteOffset": 8232,
      "byteStride": 8,
      "name": "floatBufferViews",
      "target": 34962
    },
    {
      "buffer": 0,
      "byteLength": 30912,
      "byteOffset": 18536,
      "byteStride": 12,
      "name": "floatBufferViews",
      "target": 34962
    }
  ],
  "buffers": [
    {
      "byteLength": 49448,
      "uri": "scene.bin"
    }
  ],
  "materials": [
    {
      "doubleSided": true,
      "name": "Material",
      "pbrMetallicRoughness": {
        "baseColorFactor": [
          0.2151295731707317,
          0.2151295731707317,
          0.2151295731707317,
          1.0
        ],
        "roughnessFactor": 0.24828506097560976
      }
    }
  ],
  "meshes": [
    {
      "name": "Cylinder_0",
      "primitives": [
        {
          "attributes": {
            "NORMAL": 1,
            "POSITION": 0,
            "TEXCOORD_0": 2
          },
          "indices": 3,
          "material": 0,
          "mode": 4
        }
      ]
    }
  ],
  "nodes": [
    {
      "children": [
        1
      ],
      "matrix": [
        1.0,
        0.0,
        0.0,
        0.0,
        0.0,
        2.220446049250313e-16,
        -1.0,
        0.0,
        0.0,
        1.0,
        2.220446049250313e-16,
        0.0,
        0.0,
        0.0,
        0.0,
        1.0
      ],
      "name": "Sketchfab_model"
    },
    {
      "children": [
        2,
        4,
        6
      ],
      "name": "Root"
    },
    {
      "children": [
        3
      ],
      "matrix": [
        0.79543,
        0.0,
        0.0,
        0.0,
        0.0,
        0.79543,
        0.0,
        0.0,
        0.0,
        0.0,
        1.0,
        0.0,
        0.0,
        0.0,
        6.21117,
        1.0
      ],
      "name": "Cylinder"
    },
    {
      "mesh": 0,
      "name": "Cylinder_0"
    },
    {
      "children": [
        5
      ],
      "matrix": [
        0.6840500000000002,
        0.17799000000000004,
        0.7073900000000001,
        0.0,
        -0.12598,
        0.98403,
        -0.12577,
        0.0,
        -0.71848,
        -0.003090000000000001,
        0.6955400000000002,
        0.0,
        -8.42474,
        0.0,
        13.76118,
        1.0
      ],
      "name": "Spot"
    },
    {
      "name": "Spot"
    },
    {
      "children": [
        7
      ],
      "matrix": [
        0.49172000000000005,
        0.49351000000000006,
        -0.7174,
        0.0,
        0.004090000000000001,
        0.82256,
        0.56866,
        0.0,
        0.8707400000000002,
        -0.28256000000000003,
        0.40245000000000003,
        0.0,
        12.41462,
        -6.60523,
        11.017389999999999,
        1.0
      ],
      "name": "Spot.001"
    },
    {
      "name": "Spot.001"
    }
  ],
  "scene": 0,
  "scenes": [
    {
      "name": "Sketchfab_Scene",
      "nodes": [
        0
      ]
    }
  ]
}
